PathFileType	4	(X/Y/Z)	C:/Users/beibeiliu/ov580/test_trc\sequence.27_training_dense_left.trc
DataRate	CameraRate	NumFrames	NumMarkers	Units	OrigDataRate	OrigDataStartFrame	OrigNumFrames
120	120	22	19	mm	120	290	331
Frame#	Time	ThumbCMC			ThumbMCP			ThumbIP			ThumbTip			IndexMCP			IndexPIP			IndexTip			MiddleMCP			MiddlePIP			MiddleTip			RingMCP			RingPIP			RingTip			PinkyMCP			PinkyPIP			PinkyTip			BackHand1			BackHand2			BackHand3	
		X0	Y0	Z0	X1	Y1	Z1	X2	Y2	Z2	X3	Y3	Z3	X4	Y4	Z4	X5	Y5	Z5	X6	Y6	Z6	X7	Y7	Z7	X8	Y8	Z8	X9	Y9	Z9	X10	Y10	Z10	X11	Y11	Z11	X12	Y12	Z12	X13	Y13	Z13	X14	Y14	Z14	X15	Y15	Z15	X16	Y16	Z16	X17	Y17	Z17	X18	Y18	Z18	
289	2.40833	-227.407	11.9014	38.6573	-232.475	36.0071	18.5807	-229.944	48.786	-4.64364	-228.439	61.2354	-18.5672	-213.36	10.3916	-24.6201	-206.921	34.5819	-41.684	-204.04	58.6806	-42.6957	-190.232	1.55605	-27.5328	-185.808	8.83349	-50.9417	-179.947	24.664	-78.0369	-173.86	7.61302	-22.6084	-172.612	25.3851	-40.4696	-170.156	50.6252	-46.7018	-156.12	8.648	-3.08599	-151.221	14.7172	-19.3436	-145.341	25.4431	-40.3743	-179.72	-10.8113	21.9473	-184.641	-17.8912	48.8106	-205.872	-16.0932	31.6567	
290	2.41667	-229.155	12.8525	38.1297	-233.839	36.2774	15.6365	-231.774	49.4646	-5.49157	-225.064	60.9341	-21.1161	-214.918	11.2572	-24.2673	-208.642	36.7448	-41.4063	-207.413	59.2524	-40.8303	-191.385	2.30953	-32.1584	-187.007	10.7211	-53.8323	-185.963	24.3644	-76.7616	-174.47	6.97735	-22.6242	-170.406	21.2115	-41.9432	-169.15	42.4692	-54.6785	-156.553	7.48432	-1.70751	-146.88	17.7702	-21.7898	-142.434	25.7736	-35.885	-184.357	-13.172	25.2901	-185.548	-17.784	47.9367	-206.581	-13.5313	28.2984	
291	2.425	-230.369	11.8938	35.7181	-230.198	34.5898	16.5108	-231.343	48.4056	-3.08707	-228.609	60.7986	-15.8477	-216.966	15.2528	-28.5866	-208.81	37.2092	-40.2658	-206.204	61.4991	-37.5047	-194.26	0.375671	-29.8666	-187.98	8.6143	-51.9348	-187.036	23.6134	-74.8211	-172.449	4.6947	-19.485	-167.082	16.6427	-38.9274	-167.359	36.0236	-57.4266	-152.798	8.24131	-5.63562	-149.807	15.8956	-19.2383	-141.437	23.8495	-34.3199	-178.777	-11.1313	23.5227	-182.907	-17.6559	49.2403	-209.367	-16.0273	30.9216	
292	2.43333	-230.142	11.8097	35.2122	-230.837	33.9999	17.3548	-232.776	47.7453	-0.0536179	-228.199	60.7255	-18.6742	-212.045	14.4668	-26.6037	-210.183	35.7987	-38.2077	-206.029	62.3043	-34.3549	-189.932	0.958856	-29.3078	-190.423	9.69258	-55.7687	-186.04	21.3079	-73.904	-173.789	2.33942	-20.6784	-167.159	14.9319	-44.6526	-164.541	28.8957	-56.3657	-154.056	6.38205	0.00631186	-147.574	13.5144	-17.4503	-142.884	21.1528	-34.6699	-179.064	-12.2539	25.8821	-188.123	-15.6347	46.1931	-209.258	-16.0995	31.1984	
293	2.44167	-227.844	12.2442	39.8987	-232.824	36.3496	21.4469	-231.688	50.6087	-3.2368	-230.364	62.1284	-14.0482	-214.771	13.6346	-24.032	-209.87	39.5243	-38.3745	-208.372	63.3249	-33.7663	-194.186	-0.329717	-33.0447	-188.194	8.53756	-53.9663	-181.222	22.3523	-74.7652	-175.088	0.348293	-17.2906	-169.996	8.74106	-40.1678	-163.189	23.713	-58.0358	-158.548	5.3154	-3.27407	-149.642	12.2045	-21.093	-141.833	19.8573	-37.8203	-179.019	-12.5477	21.7323	-186.433	-17.9273	44.8057	-210.333	-13.482	29.0943	
294	2.45	-229.473	14.9263	36.5651	-230.462	36.6176	18.1668	-230.79	50.1815	1.92131	-229.521	63.8239	-12.8424	-215.621	14.6888	-24.0401	-208.03	39.936	-37.5774	-204.468	67.8229	-28.7759	-190.373	0.49094	-30.9976	-187.422	6.97118	-52.5999	-182.154	24.1605	-78.7457	-172.51	-0.432957	-17.9374	-165.66	7.72411	-43.2796	-161.691	20.6532	-59.2608	-152.212	3.57047	-5.47202	-144.266	11.3733	-20.8276	-136.828	19.999	-38.5898	-181.121	-12.2293	21.2729	-184.08	-18.9022	50.2985	-209.201	-13.7531	32.8969	
295	2.45833	-224.98	13.8471	39.7833	-231.365	40.1287	19.6313	-228.064	51.7623	2.81768	-229.16	68.1651	-15.5156	-214.932	19.214	-27.6936	-206.059	42.4894	-36.3027	-202.682	66.23	-28.854	-194.486	0.515045	-28.4554	-186.932	7.55171	-52.5183	-180.264	25.6107	-76.3738	-174.981	-1.03839	-18.3909	-164.316	6.48404	-45.5871	-165.831	19.2975	-61.3565	-152.566	2.91655	-2.18619	-143.85	8.30426	-20.951	-135.069	15.826	-38.0052	-184.469	-13.1755	22.9742	-185.261	-17.6502	45.64	-209.175	-12.3357	31.9182	
296	2.46667	-224.845	14.9203	40.1155	-225.848	39.7504	21.3379	-226.585	55.7764	-1.23677	-222.993	69.6243	-15.2325	-212.849	19.1825	-27.0977	-208.664	40.1341	-37.3145	-199.023	66.8313	-29.1136	-194.433	1.53673	-31.8367	-188.876	11.287	-55.4017	-178.223	28.0225	-72.5838	-174.121	-2.83892	-18.0683	-163.97	3.23234	-43.3059	-160.663	16.508	-60.1921	-151.5	1.52808	-5.14071	-144.505	7.13045	-21.7322	-136.405	12.1409	-34.525	-180.845	-14.6018	19.6692	-187.524	-16.4147	47.16	-209.606	-13.3114	32.6768	
297	2.475	-225.383	17.4912	35.2029	-221.921	40.5823	20.8399	-221.555	56.995	2.49056	-213.989	70.5452	-13.8849	-213.775	18.3813	-27.4027	-207.819	41.7969	-38.4549	-196.734	66.6966	-32.7081	-188.948	0.21502	-28.9615	-186.689	13.4644	-54.5033	-177.413	36.339	-71.4848	-172.753	-4.04103	-19.6502	-162.809	2.01731	-40.6187	-163.122	17.3444	-61.7219	-151.192	0.303247	-0.916226	-144.485	5.15986	-17.4274	-130.529	15.3961	-36.0852	-180.536	-12.3435	24.2826	-183.334	-19.89	46.1323	-207.479	-11.4516	28.4201	
298	2.48333	-223.017	18.8342	36.8081	-221.888	45.2383	22.1945	-214.286	58.736	1.80339	-207.567	71.3131	-11.1698	-210.063	18.1988	-27.4428	-202.919	40.4007	-39.1833	-195.965	67.2714	-36.7473	-192.224	4.14733	-31.6506	-185.01	16.7165	-52.9506	-171.323	44.6919	-65.2412	-174.274	-2.25498	-20.7035	-166.502	6.01718	-44.2885	-159.901	18.3877	-57.3817	-153.023	0.512758	-4.31008	-139.263	7.35009	-18.4166	-129.243	12.8845	-29.7002	-184.242	-12.4324	23.4174	-187.406	-19.0251	47.449	-208.983	-11.7385	30.4371	
299	2.49167	-222.566	21.3159	36.5792	-216.344	44.5278	23.766	-209.717	61.1368	1.89007	-198.87	74.312	-14.4334	-207.338	19.6851	-26.7757	-200.085	38.2614	-40.5882	-193.478	61.1323	-41.0114	-186.074	6.39617	-30.9981	-180.724	21.4971	-49.9788	-172.988	48.8054	-56.9367	-169.723	-0.838204	-15.1312	-160.961	8.61619	-40.3428	-160.09	22.7411	-55.1033	-150.631	0.236258	2.00704	-143.857	5.51857	-14.4681	-129.386	13.5551	-34.6281	-182.646	-13.5536	24.9168	-186.273	-19.6273	47.5084	-208.528	-10.0592	30.5015	
300	2.5	-220.479	22.5691	42.4311	-212.76	48.777	20.3304	-203.667	60.8523	4.69236	-191.237	75.3778	-10.6069	-204.018	18.9589	-26.2522	-201.579	39.03	-41.3277	-187.95	61.2431	-44.231	-183.676	9.2244	-28.0935	-176.943	28.544	-47.3314	-170.215	56.527	-47.0207	-167.882	0.944225	-18.0759	-162.411	11.5216	-37.042	-153.972	32.1735	-54.7231	-148.204	0.331996	-0.983452	-139.063	5.29904	-13.9285	-130.498	12.5103	-29.5429	-182.558	-10.5748	26.1233	-189.529	-18.3164	45.8347	-206.23	-9.85082	30.9501	
301	2.50833	-216.967	24.4883	39.4839	-209.975	52.218	20.973	-200.998	66.8593	7.62147	-188.551	76.4449	-5.80515	-204.107	20.8129	-22.6397	-199.31	39.3079	-41.0374	-190.883	64.1815	-46.828	-184.058	12.9988	-24.5904	-172.666	38.3975	-43.8578	-163.716	63.1312	-36.4948	-170.009	5.30687	-15.6995	-157.02	15.7898	-37.6696	-154.932	39.7806	-51.7715	-148.319	0.0327567	0.52279	-138.136	6.14515	-14.962	-130.034	12.824	-30.9358	-178.99	-10.3837	26.3046	-187.154	-18.2875	46.847	-209.803	-7.97903	29.929	
302	2.51667	-218.644	28.4368	40.7051	-208.862	56.4724	23.0035	-199.348	67.7455	10.8073	-182.951	81.3362	-7.11023	-208.54	24.8327	-23.0484	-200.251	40.5456	-41.9098	-188.534	66.8598	-50.253	-182.142	18.8411	-27.1624	-172.352	44.1949	-40.9002	-166.262	68.6833	-30.4487	-167.862	7.54028	-19.565	-155.439	19.2046	-36.2148	-150.946	44.735	-48.6439	-150.517	1.85842	-0.531647	-140.409	6.35471	-17.0543	-128.524	12.5278	-31.5584	-181.24	-9.37393	25.481	-185.34	-16.5279	47.174	-210.562	-4.23872	32.6277	
303	2.525	-216.404	29.3925	42.8142	-208.722	58.4802	25.73	-196.787	69.6421	12.5286	-183.178	84.6271	-1.70213	-203.827	25.7826	-22.367	-195.388	43.4606	-43.1059	-187.94	63.7625	-52.138	-181.486	23.7861	-28.7047	-168.166	48.7504	-36.4068	-165.821	73.8518	-19.6606	-165.276	9.56459	-14.5711	-159.191	23.5763	-35.7389	-149.817	45.8092	-45.5958	-152.89	3.12555	0.631046	-136.267	5.69249	-16.2781	-128.621	9.72828	-28.8737	-181.158	-6.92401	21.8897	-186.056	-16.6866	44.1605	-209.125	-2.85559	31.9585	
304	2.53333	-214.988	30.7926	41.8572	-207.735	61.2179	28.9138	-194.726	71.6215	12.5087	-178.751	82.7939	-0.950691	-202.977	30.1399	-22.0206	-194.646	45.3265	-42.9073	-184.645	62.8194	-54.796	-177.629	26.0562	-23.8094	-165.93	48.5723	-34.1594	-159.595	74.6783	-12.6197	-164.985	13.7678	-18.0299	-156.552	29.2032	-37.0388	-147.527	45.4374	-43.43	-149.391	3.92833	0.635683	-138.67	6.93595	-14.9789	-127.291	7.27083	-29.4801	-184.243	-6.38605	25.3187	-190.449	-11.3665	44.9521	-212.017	0.730966	29.8194	
305	2.54167	-214.859	32.5239	39.9228	-203.93	58.4128	29.8133	-194.075	76.1575	13.0578	-176.867	87.4093	0.719262	-204.019	34.6118	-25.1438	-194.652	44.1796	-42.8197	-184.034	63.8269	-59.4117	-176.825	27.3262	-21.8618	-165.306	53.0609	-32.73	-161.048	77.697	-9.8534	-162.456	14.84	-15.4009	-150.796	26.5985	-32.8909	-145.986	48.6321	-43.8422	-148.647	4.0047	5.53549	-137.152	5.4615	-12.6826	-125.753	6.91606	-30.16	-181.15	-3.78622	24.5133	-186.95	-13.885	42.3101	-209.279	0.686202	30.8845	
306	2.55	-213.829	33.0975	42.9446	-201.049	59.9274	28.2404	-190.362	76.8937	11.048	-176.597	88.8178	1.72474	-199.263	33.2623	-23.9957	-190.813	45.7471	-45.1048	-182.806	60.56	-59.724	-175.345	30.0631	-23.4749	-161.759	55.2489	-31.3234	-158.375	78.825	-7.07684	-159.764	15.9598	-17.0777	-150.229	32.1804	-36.4006	-141.008	47.2185	-44.0749	-150.695	5.71385	2.68375	-136.557	6.96674	-14.1191	-124.657	5.95742	-27.2138	-181.38	-2.65373	21.7723	-187.788	-12.154	42.8493	-206.089	0.775253	28.7335	
307	2.55833	-216.598	36.0949	42.3477	-204.423	64.8795	30.5056	-189.978	76.2045	13.8485	-172.777	86.62	0.340514	-201.303	33.5692	-23.6564	-191.316	43.9828	-43.8028	-182.393	56.8013	-59.1814	-173.268	31.3138	-23.1568	-158.183	58.7427	-29.9324	-155.405	77.8794	-7.78249	-163.026	17.9938	-18.1586	-151.982	32.0654	-35.538	-139.701	46.6827	-44.0139	-147.399	4.83599	2.11806	-137.72	5.68444	-12.2801	-124.01	4.91681	-29.4632	-179.609	-2.1841	23.638	-189.14	-10.1291	41.6241	-209.999	3.35953	28.6447	
308	2.56667	-212.666	35.5369	39.9896	-204.029	63.4391	30.4091	-191.583	79.301	14.119	-174.035	87.1809	2.78206	-201.722	34.8596	-23.0966	-195.309	45.7044	-45.4904	-184.289	56.9239	-60.2979	-175.053	31.0232	-23.1295	-161.669	57.4703	-30.7749	-153.522	77.5283	-9.49179	-160.121	18.1001	-17.6115	-149.81	30.351	-34.4767	-144.066	48.5621	-44.4036	-147.47	5.44171	5.63512	-134.092	6.10758	-13.0125	-126.633	3.22615	-26.1066	-182.12	-0.939352	22.9694	-185.805	-10.2044	43.7315	-205.063	3.72289	28.107	
309	2.575	-213.293	35.3902	38.9759	-201.527	59.8183	27.3711	-190.056	76.3763	10.6749	-171.154	85.532	-2.87572	-201.516	32.7713	-21.9733	-191.354	42.2759	-43.9735	-185.247	54.9146	-61.8298	-177.355	32.8625	-23.9433	-164.692	57.4376	-31.774	-155.525	76.9428	-7.37431	-160.549	16.8803	-14.3246	-152.957	32.7448	-34.9593	-140.735	51.9494	-46.8816	-149.039	7.19601	0.576053	-137.296	7.25267	-12.9764	-127.649	4.49949	-29.8909	-177.782	-3.79539	22.4034	-186.482	-10.339	46.6709	-204.933	2.64291	25.677	
310	2.58333	-213.77	32.9104	38.9068	-204.37	61.2438	26.3391	-191.6	72.1416	13.3174	-175.428	85.5993	0.471267	-201.995	31.4965	-23.1039	-190.833	39.9176	-43.433	-181.897	51.8338	-60.7756	-176.35	32.2997	-23.7364	-161.622	57.3131	-29.8435	-159.225	78.231	-4.28194	-160.753	16.3957	-14.7209	-152.508	30.495	-34.7711	-139.215	48.7111	-46.6689	-147.351	6.26166	1.41238	-135.144	7.04408	-13.5206	-128.977	4.3446	-28.1096	-175.924	-4.45793	22.9057	-188.238	-10.3254	43.3429	-206.474	2.56646	30.5557	
